<svg xmlns="http://www.w3.org/2000/svg" xml:space="preserve" style="fill-rule:evenodd;clip-rule:evenodd;stroke-linejoin:round;stroke-miterlimit:2" viewBox="0 0 32 32"><path d="M7.514 16.262C4.487 17.622 2.5 19.681 2.5 22.043c0 2.536 2.292 4.722 5.699 6.07a.5.5 0 0 1-.368.93c-3.862-1.528-6.331-4.125-6.331-7 0-2.925 2.559-5.563 6.538-7.08a.502.502 0 0 1 .656.616 4.414 4.414 0 0 0-.225 1.304c0 .556.062 1.097.179 1.618a.497.497 0 0 1-.191.512c-1.145.844-1.855 1.884-1.855 3.03 0 1.1.654 2.102 1.717 2.926 1.732 1.343 4.531 2.199 7.681 2.199 2.964 0 5.617-.759 7.365-1.968a.5.5 0 0 1 .569.823c-1.884 1.303-4.738 2.145-7.934 2.145-3.405 0-6.421-.957-8.293-2.408-1.339-1.038-2.105-2.332-2.105-3.717 0-1.349.729-2.614 2.006-3.638a8.39 8.39 0 0 1-.139-1.522c0-.201.016-.409.045-.621Z" style="fill:#32b2ff"/><path d="M24.054 18.148c.851.612 1.498 1.321 1.893 2.088a.5.5 0 0 1-.89.457c-.365-.71-.999-1.351-1.826-1.897a.499.499 0 0 1-.215-.512c.087-.453.133-.922.133-1.401a6.66 6.66 0 0 0-.189-1.465.5.5 0 0 1 .656-.583c4.174 1.495 6.884 4.2 6.884 7.208 0 1.899-1.06 3.67-2.896 5.093C24.985 29.166 20.764 30.5 16 30.5a.5.5 0 0 1 0-1c4.509 0 8.513-1.233 10.991-3.154 1.561-1.21 2.509-2.688 2.509-4.303 0-2.463-2.156-4.596-5.403-5.95.034.276.052.54.052.79 0 .43-.032.853-.095 1.265Z" style="fill:#32b2ff"/><path d="M16.143 1.628a.5.5 0 0 0-.823.475c.085.405-.048.897-.291 1.461-.427.992-1.211 2.16-2.109 3.41-1.393 1.941-3.056 4.071-4.165 6.046-.782 1.394-1.286 2.721-1.286 3.863a8.344 8.344 0 0 0 8.34 8.34 8.344 8.344 0 0 0 8.34-8.34c0-1.846-1.012-4.445-2.356-6.987-1.986-3.754-4.672-7.39-5.65-8.268Zm.078 1.556a5.584 5.584 0 0 1-.274.776c-.45 1.045-1.269 2.28-2.215 3.597-1.371 1.912-3.013 4.007-4.105 5.953-.685 1.221-1.158 2.373-1.158 3.373a7.344 7.344 0 0 0 7.34 7.34 7.344 7.344 0 0 0 7.34-7.34c0-1.726-.984-4.143-2.24-6.52-1.532-2.896-3.484-5.727-4.688-7.179Z" style="fill:#32b2ff"/><path d="M17.079 22.494c.339-.054.67-.154.991-.276 3.38-1.279 3.872-5.188 3.425-8.289a.5.5 0 0 0-.99.142c.198 1.374.214 2.935-.201 4.295-.391 1.282-1.175 2.382-2.588 2.917-.257.098-.523.18-.795.223a.501.501 0 0 0 .158.988Z" style="fill:#32b2ff"/></svg>