<svg width="768" height="680" fill="none" xmlns="http://www.w3.org/2000/svg"><g clip-path="url(#a)"><path d="M7.954 554.149a13.999 13.999 0 0 1-17.8 12.312 13.998 13.998 0 0 1-2.956-25.697 14 14 0 0 1 7.943-1.717 14.011 14.011 0 0 1 12.813 15.102Z" fill="#C6D7FF"/><path d="M11.97 244.739a9.001 9.001 0 1 1-8.236-9.709 9.01 9.01 0 0 1 8.236 9.709Z" fill="#ECF2FF"/><path opacity=".7" d="M27.157 398.87h-1.243a15.048 15.048 0 0 1-10.361-5.181 14.872 14.872 0 0 1-3.497-10.933 15.001 15.001 0 0 1 18.621-13.299 15.004 15.004 0 0 1 11.116 12.06 15.003 15.003 0 0 1-6.57 15.028A14.994 14.994 0 0 1 27.029 399l.13-.13Zm0-28.082a12.95 12.95 0 0 0-11.53 18.725 12.952 12.952 0 1 0 21.503-14.114 12.962 12.962 0 0 0-8.885-4.56l-1.088-.051Z" fill="#9EBBFF"/><path d="M377.954 231.149a14.003 14.003 0 0 1-9.673 12.181 14.003 14.003 0 0 1-18.189-11.73 13.995 13.995 0 0 1 7.106-13.836 13.998 13.998 0 0 1 7.943-1.717 14.01 14.01 0 0 1 12.813 15.102Z" fill="#ECF2FF"/><path opacity=".7" d="M588.262 139.784h-2.072a25.084 25.084 0 0 1-17.269-8.636 24.789 24.789 0 0 1-5.828-18.221 24.997 24.997 0 1 1 47.814 12.088A25.005 25.005 0 0 1 588.046 140l.216-.216Zm0-46.805a21.582 21.582 0 0 0-20.986 17.003 21.591 21.591 0 0 0 12.035 24.182 21.58 21.58 0 0 0 26.215-6.495 21.589 21.589 0 0 0-.643-27.004 21.576 21.576 0 0 0-14.808-7.6l-1.813-.086Z" fill="#C6D7FF"/><path d="M612.954 350.149a14.003 14.003 0 0 1-9.673 12.181 14.003 14.003 0 0 1-18.189-11.73 13.995 13.995 0 0 1 7.106-13.836 13.998 13.998 0 0 1 7.943-1.717 14.01 14.01 0 0 1 12.813 15.102Z" fill="#C6D7FF"/><path opacity=".7" d="M762.231 274.81h-1.824a22.068 22.068 0 0 1-15.196-7.599 21.8 21.8 0 0 1-5.129-16.035 21.999 21.999 0 0 1 27.312-19.505 22.004 22.004 0 0 1 14.764 30.142A22.004 22.004 0 0 1 762.041 275l.19-.19Zm0-41.188a18.991 18.991 0 0 0-18.468 14.962 19 19 0 0 0 10.59 21.28 18.99 18.99 0 0 0 23.07-5.715 19 19 0 0 0-.566-23.764 18.984 18.984 0 0 0-13.031-6.687l-1.595-.076Z" fill="#9EBBFF"/></g><defs><clipPath id="a"><path fill="#fff" d="M0 0h768v680H0z"/></clipPath></defs></svg>