<svg width="320" height="572" fill="none" xmlns="http://www.w3.org/2000/svg"><g clip-path="url(#a)"><path opacity=".7" d="M302.481 49.784h-2.072a25.076 25.076 0 0 1-17.269-8.636 24.78 24.78 0 0 1-5.828-18.221 25.003 25.003 0 0 1 16.79-21.57 24.992 24.992 0 0 1 26.499 6.698 24.996 24.996 0 0 1 4.525 26.96A24.994 24.994 0 0 1 302.266 50l.215-.216Zm0-46.805a21.583 21.583 0 0 0-20.986 17.003 21.591 21.591 0 0 0 12.035 24.182 21.583 21.583 0 0 0 26.216-6.495 21.593 21.593 0 0 0-.643-27.004 21.594 21.594 0 0 0-14.808-7.6l-1.814-.086Z" fill="#C6D7FF"/><path d="M289.201 264.669a11.997 11.997 0 0 1-8.291 10.44 11.998 11.998 0 0 1-15.591-10.054 12.002 12.002 0 0 1 12.9-13.331 12.01 12.01 0 0 1 10.982 12.945Z" fill="#C6D7FF"/><path d="M36.795 52.405A12 12 0 1 1 25.813 39.46a12.012 12.012 0 0 1 10.982 12.945ZM228.166 129.95a7.998 7.998 0 0 1-5.527 6.96 8.004 8.004 0 0 1-8.547-2.441 8.006 8.006 0 0 1-1.016-8.83 8.004 8.004 0 0 1 7.769-4.319 8.01 8.01 0 0 1 7.321 8.63Z" fill="#ECF2FF"/><path opacity=".7" d="M52.96 420.001h-1.327a16.057 16.057 0 0 1-11.052-5.527 15.864 15.864 0 0 1-3.73-11.662 15.996 15.996 0 0 1 31.72-1.322 16.001 16.001 0 0 1-15.75 18.649l.138-.138Zm0-29.955a13.812 13.812 0 0 0-13.432 10.881 13.818 13.818 0 0 0 16.822 16.347 13.817 13.817 0 0 0 7.247-22.31 13.827 13.827 0 0 0-9.477-4.863l-1.16-.055Z" fill="#C6D7FF"/><path d="M310.591 585.085a11.992 11.992 0 0 1-8.291 10.441 11.995 11.995 0 0 1-12.82-3.662 12 12 0 0 1 10.129-19.723 12.01 12.01 0 0 1 10.982 12.944Z" fill="#C6D7FF"/></g><defs><clipPath id="a"><path fill="#fff" d="M0 0h320v844H0z"/></clipPath></defs></svg>