<svg width="656" height="548" fill="none" xmlns="http://www.w3.org/2000/svg"><g clip-path="url(#a)"><path d="M368 548c157.625 0 285.406-7.454 285.406-16.648 0-9.195-127.781-16.649-285.406-16.649s-285.406 7.454-285.406 16.649C82.594 540.546 210.375 548 368 548Z" fill="#F5F5F5"/><path opacity=".1" d="M202.106 415.122a5.22 5.22 0 0 1 5.593-4.515c12.601-.192 24.391 8.706 35.328 18.251 2.429 2.103 5.064 4.28 7.787 2.074a5.478 5.478 0 0 0 1.766-2.677 9.858 9.858 0 0 0 0-5.236 11.407 11.407 0 0 0-1.987-3.897c-4.754-6.251-10.539-9.251-15.235-15.707a57.044 57.044 0 0 1-6.491-11.913c-1.472-3.706-4.416-9.692-3.239-14.707 1.31-6 5.8-5.486 8.523-4.662 8.611 2.574 16.648 8.706 23.949 16.339 7.787 8.119 14.838 17.899 21.86 27.62 2.649 3.692 5.446 7.486 8.832 8.825 3.385 1.338 7.669-.824 9.097-6.148 1.427-5.324-.251-11.442-.604-16.737a77.256 77.256 0 0 1 .913-18.913 25.77 25.77 0 0 1 3.282-9.354c3.798-5.559 9.421-3.603 13.101.603a38.633 38.633 0 0 1 6.418 11.766 135.226 135.226 0 0 1 7.36 36.547c.559 7.721 1.737 15.766 4.917 21.752 5.137 9.677 14.72 8.912 22.153 3.838 12.939-8.824 22.919-28.767 25.583-51.063.869-7.265 1.09-15.118 3.739-21.207 2.311-5.265 8.244-8.824 11.143-3.147a15.998 15.998 0 0 1 .942 8.971 63.451 63.451 0 0 1-2.193 8.824c-1.472 5-2.944 14.369 1.031 17.296a4.758 4.758 0 0 0 3.989.441c13.012-2.706 25.112-14.943 33.061-32.018a101.037 101.037 0 0 0 6.565-20.016c.957-4.206 1.354-8.721 2.414-12.898a23.523 23.523 0 0 1 4.033-9.104c5.064-6.059 16.752-3.206 17.414 9.781.398 7.515-1.604 14.868-2.34 22.222-.457 4.589 2.384 4.559 4.504 4.412 10.157-1.029 19.136-11.266 27.099-21.913 9.465-12.663 19.946-29.106 32.87-29.591 2.944-.103 7.846.279 9.612 4.824a15.114 15.114 0 0 1 0 8.53c-2.62 10.854-10.304 16.457-16.192 21.825a274.61 274.61 0 0 0-43.468 52.269c-1.869 2.942-3.798 7.795-2.016 10.677a3.217 3.217 0 0 0 3.312 1.471c6.079-.47 11.776-5.294 17.325-9.295 5.549-4 11.85-7.5 17.664-4.485a15.8 15.8 0 0 1 7.228 9.795 23.04 23.04 0 0 1 .485 10.942c-2.134 9.986-11.364 14.471-16.442 19.398a170.007 170.007 0 0 0-19.136 21.899c-5.299 7.251-10.304 15.192-15.603 22.311-19.136 25.487-45.632 29.267-69.184 32.223-25.628 3.206-51.314 1.471-76.794-1.897-18.533-2.471-36.8-7.736-54.891-13.987-6.212-2.25-12.38-4.706-18.474-7.618-6.55-3.118-16.192-5.045-18.709-17.325-.53-2.647.088-4.794 1.84-5.78 5.432-3.088 13.174 1.044 18.282 3.765 7.051 3.765 13.734 9.133 20.976 12.031a9.612 9.612 0 0 0 7.537.397 5.594 5.594 0 0 0 2.782-2.545 6.772 6.772 0 0 0 .53-4.838 5.778 5.778 0 0 0-1.472-2.309 140.088 140.088 0 0 0-45.809-31.209c-5.52-2.367-11.158-4.309-16.471-7.662a37.013 37.013 0 0 1-10.893-10.295c-2.473-3.956-6.448-10.942-5.196-17.251ZM483.655 307.01a6.527 6.527 0 0 1-7.754 1.227 6.527 6.527 0 0 1-2.849-3.001 6.504 6.504 0 0 1-.466-4.109c5.078-24.634 16.118-42.548 29.248-33.253 9.804 6.927-5.564 26.032-18.179 39.136Z" fill="#407BFF"/><path opacity=".3" d="M448.033 318.511a27.773 27.773 0 0 0 9.909-9.238 27.726 27.726 0 0 0 4.354-12.823l9.951-121.112a44.777 44.777 0 0 0-11.908-34.268l-30.662-32.811a17.859 17.859 0 0 1-4.725-13.59l1.472-17.736-79.356-6.516-1.472 17.737a17.776 17.776 0 0 1-2.103 7.041 17.816 17.816 0 0 1-4.771 5.593L303.1 128.187a44.833 44.833 0 0 0-17.341 31.87l-9.965 121.113a27.73 27.73 0 0 0 10.466 24.06 27.728 27.728 0 0 0-9.906 9.237 27.686 27.686 0 0 0-4.343 12.824l-12.703 154.424a27.779 27.779 0 0 0 6.513 20.238 27.833 27.833 0 0 0 18.923 9.721l131.008 10.75a27.8 27.8 0 0 0 27.004-14.979 27.748 27.748 0 0 0 2.98-10.42l12.704-154.424a27.746 27.746 0 0 0-10.407-24.09Z" fill="#407BFF"/><path opacity=".3" d="m347.091 70.444-1.126 13.676 79.338 6.517 1.126-13.675-79.338-6.518Z" fill="#407BFF"/><path opacity=".3" d="m459.603 144.232-30.662-32.841s-19.769.853-4.416 25.076c13.086 20.487 35.887 17.295 35.078 7.765Z" fill="#fff"/><path opacity=".2" d="M259.322 481.656a27.78 27.78 0 0 0 6.514 20.238 27.825 27.825 0 0 0 18.922 9.721l131.008 10.751a27.817 27.817 0 0 0 20.259-6.494 27.759 27.759 0 0 0 9.726-18.906l-186.429-15.31Z" fill="#407BFF"/><path opacity=".3" d="M453.876 147.071a36.013 36.013 0 0 1 9.568 27.517l-9.95 121.127a18.965 18.965 0 0 1-9.745 15.031l-11.585 6.412 10.378 8.221a18.912 18.912 0 0 1 7.154 16.413l-12.703 154.424a18.953 18.953 0 0 1-6.617 12.896 18.983 18.983 0 0 1-13.8 4.459L285.568 502.82a19.023 19.023 0 0 1-7.136-2.015 18.987 18.987 0 0 1-10.307-18.413l12.703-154.424a18.948 18.948 0 0 1 9.73-15.046l11.585-6.412-10.304-8.221a18.912 18.912 0 0 1-7.154-16.413l9.965-121.113a36.043 36.043 0 0 1 13.94-25.59c11.776-7.604 42.688 11.324 78.885 14.295 36.196 2.971 58.835-6.206 66.401-2.397Z" fill="#407BFF"/><path opacity=".2" d="M387.401 149.483c-36.182-2.942-67.123-21.914-78.899-14.31 20.608 11.324 44.16 18.339 78.325 21.148 34.165 2.809 67.049-9.25 67.049-9.25-7.566-3.809-30.293 5.397-66.475 2.412ZM275.809 281.17a27.728 27.728 0 0 0 10.466 24.06l161.758 13.237a27.782 27.782 0 0 0 9.909-9.238 27.726 27.726 0 0 0 4.354-12.823L275.809 281.17Z" fill="#407BFF"/><path d="m428.087 55.271-79.116-6.519a6.015 6.015 0 0 0-6.492 5.5l-1.577 19.232a6.02 6.02 0 0 0 5.508 6.49l79.116 6.519a6.015 6.015 0 0 0 6.492-5.501l1.578-19.231a6.021 6.021 0 0 0-5.509-6.49Z" fill="#407BFF"/><path opacity=".2" d="M350.424 77.006a.735.735 0 0 1-.677-.794l1.855-23.267a.739.739 0 0 1 1.472.118l-1.914 23.252a.732.732 0 0 1-.736.691ZM364.776 78.183a.735.735 0 0 1-.677-.794l1.914-23.252a.752.752 0 0 1 .795-.677.715.715 0 0 1 .499.257.716.716 0 0 1 .163.537l-1.958 23.252a.749.749 0 0 1-.736.677ZM379.114 79.418a.734.734 0 0 1-.678-.794l1.914-23.252a.766.766 0 0 1 .795-.676.741.741 0 0 1 .504.256.73.73 0 0 1 .173.538l-1.914 23.252a.726.726 0 0 1-.508.643.734.734 0 0 1-.286.033ZM393.466 80.536a.741.741 0 0 1-.645-.508.75.75 0 0 1-.033-.286l1.914-23.252a.749.749 0 0 1 .795-.677.726.726 0 0 1 .499.258.716.716 0 0 1 .163.537l-1.913 23.251a.711.711 0 0 1-.496.643.722.722 0 0 1-.284.034ZM407.744 81.712a.74.74 0 0 1-.644-.508.73.73 0 0 1-.033-.286l1.914-23.252a.776.776 0 0 1 .794-.676.741.741 0 0 1 .645.508.75.75 0 0 1 .033.286l-1.914 23.252a.709.709 0 0 1-.253.508.717.717 0 0 1-.542.168ZM422.155 82.889a.74.74 0 0 1-.644-.508.73.73 0 0 1-.033-.286l1.854-23.267a.753.753 0 0 1 .795-.676.737.737 0 0 1 .663.794l-1.899 23.267a.749.749 0 0 1-.736.676Z" fill="#fff"/><path opacity=".2" d="M300.288 240.711c-2.237-12.369-20.269-11.487-21.3 1.029l-3.238 39.43a27.73 27.73 0 0 0 10.466 24.06 27.728 27.728 0 0 0-9.906 9.237 27.686 27.686 0 0 0-4.343 12.824l-12.704 154.424a27.784 27.784 0 0 0 6.514 20.238 27.833 27.833 0 0 0 18.923 9.721l33.856 2.779a24.432 24.432 0 0 0 20.075-7.92 24.39 24.39 0 0 0 5.949-20.729l-44.292-245.093Z" fill="#407BFF"/><path opacity=".3" d="M430.56 442.918a14.396 14.396 0 0 1-18.302 12.65 14.378 14.378 0 0 1-3.041-26.402 14.408 14.408 0 0 1 8.169-1.764 14.417 14.417 0 0 1 9.8 5.035 14.392 14.392 0 0 1 3.374 10.481ZM384.796 387.222a10.185 10.185 0 0 1-12.949 8.958 10.176 10.176 0 0 1 3.631-19.929 10.203 10.203 0 0 1 6.927 3.562 10.19 10.19 0 0 1 2.391 7.409ZM342.211 263.256a10.18 10.18 0 0 1-10.547-11.676 10.165 10.165 0 0 1 2.535-5.335 10.192 10.192 0 0 1 15.723.787 10.168 10.168 0 0 1-.647 12.904 10.195 10.195 0 0 1-7.064 3.32ZM369.987 202.413a7.219 7.219 0 0 1-6.881-4.116 7.208 7.208 0 0 1 4.779-10.074 7.215 7.215 0 0 1 7.546 2.714 7.202 7.202 0 0 1-.465 9.124 7.215 7.215 0 0 1-4.979 2.352ZM414.677 343.233a4.209 4.209 0 0 1-7.406 2.368 4.202 4.202 0 0 1 1.163-6.394 4.206 4.206 0 0 1 2.386-.518 4.23 4.23 0 0 1 2.868 1.476 4.216 4.216 0 0 1 .989 3.068Z" fill="#407BFF"/><path opacity=".7" d="M338.428 458.302h-.707a8.551 8.551 0 0 1-5.888-2.942 8.434 8.434 0 0 1-1.987-6.206 8.517 8.517 0 0 1 5.724-7.348 8.535 8.535 0 0 1 9.036 2.282 8.508 8.508 0 0 1-1.595 12.894 8.53 8.53 0 0 1-4.657 1.393l.074-.073Zm0-15.943a7.362 7.362 0 0 0-7.156 5.792 7.357 7.357 0 0 0 8.962 8.699 7.361 7.361 0 0 0 4.08-2.675 7.346 7.346 0 0 0-5.268-11.786l-.618-.03ZM429.471 286.2h-.515a6.202 6.202 0 0 1-4.212-2.161 6.188 6.188 0 0 1-1.456-4.502 6.188 6.188 0 0 1 2.168-4.213 6.198 6.198 0 0 1 8.727.712 6.186 6.186 0 0 1 1.455 4.501 6.258 6.258 0 0 1-2.163 4.221 6.176 6.176 0 0 1-4.004 1.442Zm-5.079-6.604a5.085 5.085 0 0 0 2.773 4.908 5.099 5.099 0 0 0 7.386-4.124 5.075 5.075 0 0 0-1.194-3.711 5.045 5.045 0 0 0-3.533-1.647 5.077 5.077 0 0 0-5.491 4.648l.059-.074ZM334.365 155.806h-.221a2.944 2.944 0 0 1-2.65-3.117 2.947 2.947 0 0 1 3.627-2.669 2.945 2.945 0 0 1 2.211 2.353 2.932 2.932 0 0 1-1.28 2.962 2.94 2.94 0 0 1-1.614.486l-.073-.015Zm-1.781-3.029a1.781 1.781 0 1 0 1.928-1.633 1.765 1.765 0 0 0-1.928 1.633ZM399.457 231.975h-.619a7.355 7.355 0 0 1-5.041-2.579 7.342 7.342 0 0 1-.172-9.287 7.36 7.36 0 0 1 13.048 3.328 7.353 7.353 0 0 1-7.231 8.567l.015-.029Zm0-13.678a6.225 6.225 0 0 0-4.048 1.471 6.287 6.287 0 0 0-2.208 4.265 6.267 6.267 0 0 0 2.359 5.425 6.288 6.288 0 0 0 9.946-3.185 6.275 6.275 0 0 0-1.236-5.785 6.24 6.24 0 0 0-4.283-2.191h-.53Z" fill="#fff"/><path opacity=".3" d="m459.838 296.274 9.509-115.495a5.617 5.617 0 0 0-1.323-4.107 5.644 5.644 0 0 0-3.844-1.967 5.635 5.635 0 0 0-4.109 1.312 5.631 5.631 0 0 0-1.97 3.836l-9.509 115.494a23.257 23.257 0 0 1-3.661 10.776 23.294 23.294 0 0 1-8.336 7.755l-5.785 3.221 5.196 4.103a23.352 23.352 0 0 1 6.961 9.01 23.329 23.329 0 0 1 1.871 11.227l-12.703 154.424c-.765 9.266-6.595 13.781-14.794 17.384a2.576 2.576 0 0 0-1.487 2.774 2.576 2.576 0 0 0 2.312 2.138 23.4 23.4 0 0 0 17.034-5.47 23.358 23.358 0 0 0 8.181-15.899l12.703-154.424a23.31 23.31 0 0 0-8.832-20.237l-5.196-4.118 5.785-3.206a23.317 23.317 0 0 0 11.997-18.531Z" fill="#fff"/><path opacity=".3" d="M612.632 475.759c-1.59-7.207-21.433-2.941-25.539-2.28a120.037 120.037 0 0 0-23.317 6.721c-8.287 3.251-17.914 8.03-26.496 3.089-4.961-2.853 12.262-8.486 13.822-9.06a125.918 125.918 0 0 0 21.109-9.677c2.723-1.618 7.993-5.486 5.726-9.412-1.884-3.251-8.641-2.942-12.748-2.442a151.873 151.873 0 0 0-36.344 9.104 359.648 359.648 0 0 0-33.355 15.251 43.03 43.03 0 0 1-13.528 4.868c-5.181.736-11.525-.367-13.572-3.235-2.046-2.868.589-6.221 1.193-9.104a15.463 15.463 0 0 0-1.016-10.295 10.876 10.876 0 0 0-4.784-5.03c-5.608-2.941-14.087-1.853-19.725.471a32.39 32.39 0 0 0-9.847 6.5 39.704 39.704 0 0 0-11.6 19.928 18.544 18.544 0 0 1-7.801 11.869c-7.89 5.309-22.345 5-33.4 2.338-19.298-4.573-34.018-15.265-37.566-27.34-1.722-5.75-2.561-11.766-10.304-14.016-5.004-1.471-15.485-.441-13.248 5.883a19.675 19.675 0 0 0 3.151 4.765c2.046 2.691 4.224 7.765-1.855 9.398a18.837 18.837 0 0 1-5.991.294c-19.548-1.309-37.536-7.824-49.194-17.001a39.597 39.597 0 0 1-9.51-10.781c-1.383-2.279-1.884-4.735-3.4-6.985a13.51 13.51 0 0 0-5.888-4.898c-7.507-3.221-25.142-1.544-26.378 5.515-.663 3.824 1.722 7.971 2.944 11.604.219.458.271.978.147 1.471-.353.926-1.752 1.191-2.944 1.265-15.765 1.044-31.059-5.074-44.292-11.457-14.014-6.765-29.44-15.575-48.915-15.678a37.773 37.773 0 0 0-11.938 1.368 7.042 7.042 0 0 0-2.679 1.382 3.423 3.423 0 0 0-.648 3.795 8.848 8.848 0 0 0 2.738 3.265c5.888 4.794 14.132 6.736 21.653 9.206a370.212 370.212 0 0 1 64.445 27.87c2.075 1.162 5.755 3.853 2.841 5.883-2.915 2.03-8.832.721-12.321.147-6.33-1.029-12.409-2.677-18.577-4.221-8.155-2.059-17.664-3.927-26.496-2.221-4.666.898-8.832 2.809-11.025 5.398a5.084 5.084 0 0 0-.942 5.883c3.032 5.397 16.854 7.721 24.406 10.295a246.438 246.438 0 0 1 28.306 11.662c7.846 3.883 15.132 8.133 23.081 11.943 28.395 13.604 68.051 15.354 103.511 16.677 38.493 1.471 77.163.221 115.552-1.912 27.968-1.559 55.421-4.632 82.83-8.25 7.875-1.03 15.706-2.295 23.552-3.368a147.73 147.73 0 0 0 23.552-4.662 19.916 19.916 0 0 0 7.581-3.795c2.104-1.956 2.767-4.515-1.001-5.25-7.89-1.574-16.016.22-23.729 1.618a459.723 459.723 0 0 0-25.731 5.485 100.858 100.858 0 0 1-11.776 2.398c-3.99.559-8.052.299-11.938-.765-1.265-.397-2.649-1.103-2.723-2.221-.073-1.118.986-1.824 2.076-2.25 15.883-6.295 32.752-10.295 49.739-13.972 11.525-2.5 23.257-4.03 34.871-5.986 10.584-1.779 21.742-2.191 30.912-8.897a10.575 10.575 0 0 0 4.063-4.898 5.88 5.88 0 0 0 .28-3.25ZM157.136 416.21c-4.313-12.251-19.681-33.944-22.919-21.134-1.737 7.192 22.919 21.134 22.919 21.134ZM543.065 440.329c8.214-7.485 18.459-11.941 19.784-5.353 1.236 6.235-19.784 5.353-19.784 5.353ZM206.08 380.795c-5.623-2.942-10.01-7.662-6.712-9.633 3.297-1.97 6.712 9.633 6.712 9.633Z" fill="#407BFF"/></g><defs><clipPath id="a"><path fill="#fff" d="M0 0h736v548H0z"/></clipPath></defs></svg>