<svg width="865" height="680" fill="none" xmlns="http://www.w3.org/2000/svg"><g clip-path="url(#a)"><path d="M407 680c196.175 0 355.206-9.249 355.206-20.659 0-11.409-159.031-20.658-355.206-20.658s-355.207 9.249-355.207 20.658C51.793 670.751 210.826 680 407 680Z" fill="#F5F5F5"/><path opacity=".1" d="M200.534 515.115a6.466 6.466 0 0 1 2.359-4.184 6.519 6.519 0 0 1 4.602-1.419c15.682-.237 30.356 10.804 43.968 22.648 3.023 2.609 6.302 5.31 9.691 2.573a6.805 6.805 0 0 0 2.199-3.322c.586-2.126.586-4.37 0-6.496a14.169 14.169 0 0 0-2.473-4.837c-5.918-7.756-13.118-11.479-18.962-19.49a70.79 70.79 0 0 1-8.079-14.782c-1.832-4.599-5.496-12.027-4.03-18.25 1.63-7.446 7.218-6.807 10.607-5.785 10.717 3.193 20.72 10.804 29.807 20.275 9.691 10.074 18.466 22.21 27.205 34.273 3.298 4.581 6.778 9.289 10.992 10.95 4.214 1.661 9.545-1.022 11.322-7.629 1.777-6.606-.312-14.198-.751-20.768a95.603 95.603 0 0 1 1.135-23.469 31.927 31.927 0 0 1 4.086-11.607c4.726-6.898 11.725-4.471 16.305.749a47.897 47.897 0 0 1 7.987 14.599 167.341 167.341 0 0 1 9.16 45.351c.696 9.581 2.162 19.563 6.119 26.991 6.394 12.008 18.32 11.059 27.572 4.763 16.103-10.95 28.524-35.696 31.84-63.363 1.081-9.015 1.355-18.76 4.653-26.316 2.876-6.533 10.259-10.949 13.868-3.905a19.797 19.797 0 0 1 1.173 11.132 78.732 78.732 0 0 1-2.73 10.95c-1.832 6.205-3.664 17.83 1.282 21.462a5.947 5.947 0 0 0 4.965.547c16.195-3.358 31.254-18.541 41.147-39.729a125.154 125.154 0 0 0 8.171-24.838c1.19-5.219 1.685-10.822 3.004-16.005a29.142 29.142 0 0 1 5.02-11.297c6.302-7.518 20.848-3.978 21.672 12.136.495 9.326-1.997 18.451-2.912 27.576-.568 5.694 2.967 5.657 5.605 5.475 12.641-1.278 23.816-13.98 33.728-27.192 11.779-15.713 24.823-36.116 40.908-36.719 3.664-.127 9.765.347 11.963 5.986a18.708 18.708 0 0 1 0 10.585c-3.261 13.468-12.824 20.421-20.152 27.082a340.935 340.935 0 0 0-54.099 64.86c-2.327 3.65-4.726 9.672-2.51 13.249a4.007 4.007 0 0 0 1.779 1.544 4.028 4.028 0 0 0 2.343.281c7.566-.584 14.656-6.57 21.563-11.534 6.907-4.964 14.748-9.307 21.984-5.566a19.672 19.672 0 0 1 5.718 5.18 19.594 19.594 0 0 1 3.277 6.974 28.513 28.513 0 0 1 .605 13.578c-2.657 12.391-14.143 17.958-20.464 24.071a211.164 211.164 0 0 0-23.816 27.174c-6.595 8.997-12.824 18.852-19.419 27.685-23.816 31.626-56.792 36.316-86.104 39.985-31.895 3.978-63.864 1.825-95.575-2.355-23.065-3.065-45.8-9.599-68.316-17.355-7.731-2.792-15.407-5.84-22.991-9.453-8.153-3.869-20.152-6.26-23.285-21.498-.66-3.285.11-5.95 2.29-7.172 6.76-3.833 16.396 1.295 22.753 4.671 8.776 4.672 17.093 11.333 26.106 14.929a11.992 11.992 0 0 0 9.38.492 6.954 6.954 0 0 0 3.463-3.157 8.384 8.384 0 0 0 .659-6.004 7.166 7.166 0 0 0-1.832-2.865 174.359 174.359 0 0 0-57.012-38.726c-6.87-2.938-13.886-5.347-20.5-9.508A46.05 46.05 0 0 1 207 536.521c-3.077-4.909-8.024-13.577-6.466-21.406ZM550.94 380.961a8.138 8.138 0 0 1-9.65 1.523 8.1 8.1 0 0 1-3.546-3.724 8.06 8.06 0 0 1-.581-5.099c6.321-30.568 20.061-52.796 36.402-41.262 12.201 8.595-6.925 32.302-22.625 48.562Z" fill="#407BFF"/><path opacity=".3" d="M506.606 395.233a34.524 34.524 0 0 0 12.332-11.463 34.35 34.35 0 0 0 5.42-15.912l12.384-150.286a55.387 55.387 0 0 0-2.897-22.822 55.536 55.536 0 0 0-11.924-19.699l-38.16-40.715a22.153 22.153 0 0 1-4.719-7.816 22.09 22.09 0 0 1-1.162-9.047l1.832-22.01-98.763-8.084-1.832 22.009a22.017 22.017 0 0 1-2.618 8.738 22.106 22.106 0 0 1-5.938 6.939l-44.334 33.999a55.735 55.735 0 0 0-14.983 17.503 55.511 55.511 0 0 0-6.598 22.044l-12.403 150.286a34.314 34.314 0 0 0 2.748 16.558 34.45 34.45 0 0 0 10.278 13.298 34.459 34.459 0 0 0-12.328 11.462 34.29 34.29 0 0 0-5.406 15.913l-15.81 191.621a34.409 34.409 0 0 0 8.106 25.113 34.668 34.668 0 0 0 23.551 12.061l163.048 13.341a34.729 34.729 0 0 0 13.411-1.53 34.644 34.644 0 0 0 11.802-6.527 34.479 34.479 0 0 0 8.395-10.531 34.354 34.354 0 0 0 3.71-12.929l15.81-191.622a34.313 34.313 0 0 0-2.706-16.567 34.448 34.448 0 0 0-10.246-13.325Z" fill="#407BFF"/><path opacity=".3" d="m380.977 87.413-1.401 16.97 98.742 8.086 1.4-16.97-98.741-8.086Z" fill="#407BFF"/><path opacity=".3" d="m521.005 178.974-38.16-40.751s-24.604 1.058-5.496 31.115c16.286 25.422 44.664 21.462 43.656 9.636Z" fill="#fff"/><path opacity=".2" d="M271.743 597.676a34.405 34.405 0 0 0 8.107 25.113 34.666 34.666 0 0 0 23.55 12.061l163.048 13.341a34.729 34.729 0 0 0 13.411-1.53 34.634 34.634 0 0 0 11.803-6.528 34.478 34.478 0 0 0 8.395-10.53 34.352 34.352 0 0 0 3.709-12.929l-232.023-18.998Z" fill="#407BFF"/><path opacity=".3" d="M513.879 182.496a44.683 44.683 0 0 1 9.572 15.821 44.549 44.549 0 0 1 2.336 18.325l-12.385 150.304a23.463 23.463 0 0 1-3.713 10.842 23.59 23.59 0 0 1-8.414 7.809l-14.418 7.957 12.915 10.201a23.5 23.5 0 0 1 7.022 9.069 23.401 23.401 0 0 1 1.882 11.298l-15.81 191.621a23.492 23.492 0 0 1-8.235 16.002 23.674 23.674 0 0 1-17.175 5.533l-163.048-13.341a23.721 23.721 0 0 1-8.881-2.5 23.64 23.64 0 0 1-7.244-5.695 23.538 23.538 0 0 1-4.505-8.024 23.466 23.466 0 0 1-1.079-9.13l15.81-191.621a23.464 23.464 0 0 1 3.699-10.851 23.57 23.57 0 0 1 8.41-7.818l14.418-7.957-12.824-10.202a23.492 23.492 0 0 1-7.021-9.068 23.403 23.403 0 0 1-1.882-11.298l12.402-150.286a44.622 44.622 0 0 1 5.311-17.701 44.783 44.783 0 0 1 12.038-14.054c14.656-9.435 53.128 14.053 98.177 17.739 45.049 3.687 73.225-7.701 82.642-2.975Z" fill="#407BFF"/><path opacity=".2" d="M431.146 185.489c-45.031-3.65-83.54-27.192-98.196-17.757 25.648 14.053 54.96 22.758 97.481 26.243 42.521 3.486 83.448-11.479 83.448-11.479-9.417-4.726-37.703 6.698-82.733 2.993ZM292.262 348.897a34.326 34.326 0 0 0 2.747 16.558 34.459 34.459 0 0 0 10.278 13.298l201.319 16.425a34.515 34.515 0 0 0 12.332-11.463 34.346 34.346 0 0 0 5.42-15.912l-232.096-18.906Z" fill="#407BFF"/><path d="m481.783 68.585-98.466-8.09c-4.124-.338-7.741 2.718-8.079 6.826l-1.964 23.864c-.338 4.108 2.731 7.713 6.856 8.052l98.465 8.089c4.124.339 7.742-2.717 8.08-6.825l1.963-23.864c.338-4.108-2.731-7.714-6.855-8.052Z" fill="#407BFF"/><path opacity=".2" d="M385.126 95.555a.92.92 0 0 1-.802-.63.91.91 0 0 1-.041-.355l2.308-28.871a.915.915 0 0 1 .99-.84.92.92 0 0 1 .842.986l-2.381 28.852a.912.912 0 0 1-.916.858ZM402.988 97.015a.922.922 0 0 1-.627-.318.902.902 0 0 1-.216-.667l2.382-28.853a.935.935 0 0 1 .989-.84.902.902 0 0 1 .791.632.881.881 0 0 1 .033.354l-2.436 28.853a.931.931 0 0 1-.916.84ZM420.831 98.548a.92.92 0 0 1-.801-.63.91.91 0 0 1-.041-.355l2.381-28.853a.948.948 0 0 1 .99-.84.915.915 0 0 1 .842.986l-2.381 28.853a.901.901 0 0 1-.32.624.906.906 0 0 1-.67.215ZM438.694 99.935a.92.92 0 0 1-.802-.63.91.91 0 0 1-.041-.356l2.381-28.852a.932.932 0 0 1 .99-.84.905.905 0 0 1 .621.32.892.892 0 0 1 .203.666l-2.382 28.853a.903.903 0 0 1-.617.798.898.898 0 0 1-.353.041ZM456.464 101.395a.91.91 0 0 1-.627-.318.909.909 0 0 1-.216-.667l2.382-28.853a.971.971 0 0 1 .989-.84.922.922 0 0 1 .627.318.901.901 0 0 1 .216.668l-2.382 28.853a.895.895 0 0 1-.989.839ZM474.399 102.855a.905.905 0 0 1-.345-.097.926.926 0 0 1-.457-.533.912.912 0 0 1-.041-.355l2.309-28.871a.936.936 0 0 1 .989-.84.916.916 0 0 1 .824.986l-2.363 28.871a.934.934 0 0 1-.916.839Z" fill="#fff"/><path opacity=".2" d="M322.728 298.692c-2.785-15.348-25.227-14.253-26.509 1.277l-4.031 48.928a34.314 34.314 0 0 0 2.748 16.558 34.457 34.457 0 0 0 10.278 13.298 34.45 34.45 0 0 0-12.328 11.462 34.29 34.29 0 0 0-5.406 15.913l-15.81 191.621a34.405 34.405 0 0 0 8.106 25.112 34.667 34.667 0 0 0 23.551 12.062l42.136 3.449c4.642.379 9.31-.31 13.642-2.014a30.39 30.39 0 0 0 11.343-7.813 30.239 30.239 0 0 0 6.71-12.002 30.163 30.163 0 0 0 .695-13.721l-55.125-304.13Z" fill="#407BFF"/><path opacity=".3" d="M484.86 549.606a17.808 17.808 0 0 1-3.826 9.635 17.917 17.917 0 0 1-8.553 5.894 17.982 17.982 0 0 1-10.4.168 17.934 17.934 0 0 1-8.741-5.615 17.795 17.795 0 0 1-2.275-19.7 17.884 17.884 0 0 1 7.232-7.446 17.954 17.954 0 0 1 22.363 4.058 17.82 17.82 0 0 1 4.2 13.006ZM427.903 480.495a12.601 12.601 0 0 1-2.703 6.82 12.688 12.688 0 0 1-6.052 4.175 12.735 12.735 0 0 1-7.36.121 12.695 12.695 0 0 1-6.187-3.973 12.59 12.59 0 0 1-1.61-13.942 12.653 12.653 0 0 1 5.12-5.269 12.715 12.715 0 0 1 7.195-1.546 12.71 12.71 0 0 1 8.622 4.42 12.613 12.613 0 0 1 2.975 9.194ZM374.903 326.669a12.721 12.721 0 0 1-7.132-1.798 12.653 12.653 0 0 1-4.928-5.441 12.585 12.585 0 0 1 2.09-13.871 12.688 12.688 0 0 1 6.314-3.759 12.725 12.725 0 0 1 7.348.367 12.669 12.669 0 0 1 5.906 4.37 12.586 12.586 0 0 1 1.745 11.781 12.619 12.619 0 0 1-2.551 4.23 12.677 12.677 0 0 1-3.984 2.933 12.733 12.733 0 0 1-4.808 1.188ZM409.473 251.17a9.008 9.008 0 0 1-5.06-1.259 8.96 8.96 0 0 1-3.504-3.849 8.915 8.915 0 0 1 1.47-9.835 8.985 8.985 0 0 1 4.477-2.666 9.014 9.014 0 0 1 5.21.264 8.981 8.981 0 0 1 4.182 3.104 8.924 8.924 0 0 1 1.744 4.897 8.925 8.925 0 0 1-2.322 6.425 8.992 8.992 0 0 1-6.197 2.919ZM465.093 425.91a5.21 5.21 0 0 1-1.122 2.814 5.245 5.245 0 0 1-5.542 1.766 5.244 5.244 0 0 1-2.554-1.642 5.207 5.207 0 0 1 1.447-7.934 5.258 5.258 0 0 1 2.971-.643 5.264 5.264 0 0 1 3.569 1.832 5.225 5.225 0 0 1 1.231 3.807Z" fill="#407BFF"/><path opacity=".7" d="M370.195 568.695h-.879a10.668 10.668 0 0 1-7.328-3.649 10.439 10.439 0 0 1-2.473-7.702c.17-2.044.935-3.995 2.2-5.614a10.595 10.595 0 0 1 4.924-3.503 10.643 10.643 0 0 1 6.046-.251 10.618 10.618 0 0 1 5.199 3.082 10.53 10.53 0 0 1 1.92 11.395 10.575 10.575 0 0 1-3.904 4.605 10.649 10.649 0 0 1-5.797 1.729l.092-.092Zm0-19.782a9.183 9.183 0 0 0-5.72 2.034 9.119 9.119 0 0 0-3.185 5.152 9.095 9.095 0 0 0 .75 6.005 9.146 9.146 0 0 0 4.356 4.216 9.195 9.195 0 0 0 6.047.575 9.161 9.161 0 0 0 5.078-3.32 9.098 9.098 0 0 0-3.091-13.647 9.19 9.19 0 0 0-3.465-.979l-.77-.036ZM483.504 355.138h-.641a7.722 7.722 0 0 1-5.242-2.681 7.666 7.666 0 0 1-1.811-5.586 7.674 7.674 0 0 1 2.698-5.229 7.733 7.733 0 0 1 10.861.884 7.666 7.666 0 0 1 1.811 5.586 7.765 7.765 0 0 1-2.693 5.238 7.691 7.691 0 0 1-4.983 1.788Zm-6.32-8.194a6.298 6.298 0 0 0 .802 3.565 6.33 6.33 0 0 0 2.649 2.525 6.358 6.358 0 0 0 6.973-.816 6.315 6.315 0 0 0 2.22-4.301 6.296 6.296 0 0 0-1.487-4.605 6.28 6.28 0 0 0-4.397-2.044 6.343 6.343 0 0 0-4.619 1.47 6.294 6.294 0 0 0-2.215 4.297l.074-.091ZM365.139 193.336h-.275a3.668 3.668 0 0 1-2.434-1.27 3.642 3.642 0 0 1-.864-2.599c.047-.709.3-1.39.73-1.958a3.667 3.667 0 0 1 3.784-1.353 3.673 3.673 0 0 1 1.814 1.051 3.64 3.64 0 0 1-.655 5.545 3.675 3.675 0 0 1-2.009.602l-.091-.018Zm-2.217-3.759a2.202 2.202 0 0 0 1.199 2.139 2.225 2.225 0 0 0 2.444-.28 2.201 2.201 0 0 0-.05-3.41 2.227 2.227 0 0 0-1.193-.475 2.204 2.204 0 0 0-2.168 1.19 2.204 2.204 0 0 0-.232.836ZM446.15 287.852h-.77a9.205 9.205 0 0 1-3.458-.975 9.146 9.146 0 0 1-4.555-5.358 9.11 9.11 0 0 1-.396-3.559 9.108 9.108 0 0 1 1.921-4.832 9.153 9.153 0 0 1 4.257-3.004 9.2 9.2 0 0 1 5.213-.202 9.17 9.17 0 0 1 4.478 2.667 9.104 9.104 0 0 1 1.65 9.827 9.137 9.137 0 0 1-3.363 3.973 9.193 9.193 0 0 1-4.996 1.499l.019-.036Zm0-16.973a7.768 7.768 0 0 0-5.038 1.825 7.803 7.803 0 0 0-2.748 5.293 7.761 7.761 0 0 0 .622 3.732 7.798 7.798 0 0 0 2.314 2.999 7.84 7.84 0 0 0 10.475-.678 7.784 7.784 0 0 0 2.036-7.054 7.769 7.769 0 0 0-7.002-6.117h-.659Z" fill="#fff"/><path opacity=".3" d="m521.298 367.639 11.835-143.314a6.981 6.981 0 0 0-3.795-6.791 7.014 7.014 0 0 0-2.635-.746 7.005 7.005 0 0 0-6.817 3.764 6.923 6.923 0 0 0-.749 2.623l-11.835 143.314a28.814 28.814 0 0 1-4.557 13.372 28.947 28.947 0 0 1-10.374 9.623l-7.2 3.997 6.467 5.091a28.993 28.993 0 0 1 8.663 11.181 28.874 28.874 0 0 1 2.329 13.931l-15.81 191.621c-.953 11.497-8.207 17.1-18.412 21.571a3.19 3.19 0 0 0 1.026 6.096 29.189 29.189 0 0 0 21.201-6.788 28.963 28.963 0 0 0 10.182-19.729l15.81-191.622a28.846 28.846 0 0 0-2.325-13.933 28.96 28.96 0 0 0-8.667-11.178l-6.467-5.11 7.199-3.978a29.029 29.029 0 0 0 10.369-9.627 28.877 28.877 0 0 0 4.562-13.368Z" fill="#fff"/><path opacity=".3" d="M711.46 590.358c-1.978-8.943-26.674-3.65-31.785-2.829a149.69 149.69 0 0 0-29.019 8.34c-10.314 4.033-22.295 9.964-32.976 3.833-6.174-3.541 15.261-10.53 17.203-11.242a157.011 157.011 0 0 0 26.27-12.008c3.39-2.008 9.948-6.808 7.127-11.68-2.345-4.033-10.754-3.65-15.865-3.03a189.441 189.441 0 0 0-45.232 11.297 448.194 448.194 0 0 0-41.514 18.925 53.66 53.66 0 0 1-16.836 6.04c-6.448.913-14.344-.456-16.891-4.015-2.546-3.558.733-7.719 1.484-11.296a19.125 19.125 0 0 0-1.264-12.775 13.51 13.51 0 0 0-5.954-6.241c-6.98-3.65-17.532-2.3-24.549.584a40.324 40.324 0 0 0-12.256 8.066 49.235 49.235 0 0 0-14.436 24.728 22.939 22.939 0 0 1-3.382 8.327 23.059 23.059 0 0 1-6.327 6.401c-9.82 6.588-27.81 6.205-41.568 2.902-24.018-5.676-42.338-18.944-46.753-33.927-2.144-7.135-3.188-14.599-12.824-17.391-6.229-1.825-19.273-.548-16.488 7.299a24.364 24.364 0 0 0 3.92 5.913c2.547 3.34 5.258 9.636-2.308 11.662-2.45.518-4.967.641-7.456.365-24.329-1.624-46.716-9.709-61.226-21.097a49.16 49.16 0 0 1-11.834-13.377c-1.722-2.828-2.345-5.876-4.232-8.668a16.8 16.8 0 0 0-7.328-6.077c-9.343-3.997-31.291-1.917-32.83 6.843-.824 4.745 2.144 9.891 3.664 14.399.273.569.338 1.214.184 1.825-.44 1.15-2.181 1.478-3.664 1.57-19.621 1.295-38.656-6.297-55.125-14.217-17.441-8.395-36.64-19.326-60.878-19.454a47.167 47.167 0 0 0-14.857 1.697 8.77 8.77 0 0 0-3.335 1.716 4.245 4.245 0 0 0-.806 4.708 10.962 10.962 0 0 0 3.408 4.051c7.328 5.95 17.587 8.359 26.949 11.425a461.35 461.35 0 0 1 80.205 34.583c2.583 1.442 7.163 4.781 3.535 7.3-3.627 2.518-10.992.894-15.333.182-7.878-1.277-15.444-3.321-23.12-5.237-10.15-2.555-21.984-4.873-32.976-2.756-5.808 1.113-10.992 3.486-13.722 6.697a6.29 6.29 0 0 0-1.172 7.3c3.773 6.698 20.976 9.581 30.374 12.775a307.105 307.105 0 0 1 35.229 14.472c9.765 4.818 18.833 10.092 28.726 14.819 35.34 16.881 84.694 19.052 128.826 20.695 47.907 1.825 96.034.274 143.812-2.373 34.808-1.934 68.975-5.748 103.087-10.238 9.801-1.277 19.548-2.847 29.312-4.179a184.321 184.321 0 0 0 29.312-5.785 24.809 24.809 0 0 0 9.435-4.708c2.62-2.428 3.444-5.603-1.246-6.516-9.819-1.952-19.932.274-29.532 2.008a573.104 573.104 0 0 0-32.023 6.807 125.857 125.857 0 0 1-14.656 2.975 36.971 36.971 0 0 1-14.858-.949c-1.575-.493-3.297-1.369-3.389-2.756-.091-1.387 1.228-2.263 2.583-2.792 19.768-7.811 40.762-12.775 61.904-17.337 14.344-3.103 28.945-5.001 43.4-7.428 13.172-2.208 27.058-2.719 38.472-11.041a13.133 13.133 0 0 0 5.056-6.077 7.276 7.276 0 0 0 .348-4.033ZM144.566 516.465c-5.368-15.202-24.494-42.12-28.524-26.225-2.162 8.924 28.524 26.225 28.524 26.225ZM624.88 546.393c10.222-9.288 22.973-14.817 24.622-6.642 1.539 7.737-24.622 6.642-24.622 6.642ZM205.48 472.519c-6.998-3.65-12.458-9.507-8.354-11.953 4.104-2.445 8.354 11.953 8.354 11.953Z" fill="#407BFF"/></g><defs><clipPath id="a"><path fill="#fff" transform="translate(-51)" d="M0 0h916v680H0z"/></clipPath></defs></svg>