<svg width="280" height="210" fill="none" xmlns="http://www.w3.org/2000/svg"><g clip-path="url(#a)"><path d="M140 210c59.966 0 108.578-2.856 108.578-6.38 0-3.523-48.612-6.38-108.578-6.38s-108.578 2.857-108.578 6.38c0 3.524 48.612 6.38 108.578 6.38Z" fill="#F5F5F5"/><path opacity=".1" d="M76.888 159.079c.067-.507.325-.97.721-1.292.396-.322.9-.478 1.407-.438 4.794-.073 9.28 3.337 13.44 6.994.924.806 1.926 1.64 2.962.795.32-.267.555-.624.672-1.026a3.81 3.81 0 0 0 0-2.006 4.4 4.4 0 0 0-.756-1.494c-1.808-2.395-4.01-3.545-5.796-6.019a21.9 21.9 0 0 1-2.47-4.565c-.56-1.42-1.68-3.714-1.231-5.636.498-2.299 2.206-2.102 3.242-1.786 3.276.986 6.334 3.336 9.111 6.261 2.963 3.111 5.645 6.859 8.316 10.584 1.008 1.415 2.072 2.869 3.36 3.382 1.288.513 2.918-.316 3.461-2.356.543-2.04-.095-4.385-.229-6.414a29.765 29.765 0 0 1 .347-7.247 9.923 9.923 0 0 1 1.249-3.585c1.444-2.13 3.584-1.381 4.984.231a14.835 14.835 0 0 1 2.441 4.509 52.147 52.147 0 0 1 2.8 14.005c.213 2.959.661 6.042 1.871 8.336 1.954 3.708 5.6 3.415 8.428 1.471 4.922-3.382 8.719-11.024 9.732-19.568.331-2.784.415-5.794 1.423-8.127.879-2.018 3.136-3.382 4.239-1.206a6.17 6.17 0 0 1 .358 3.438 24.397 24.397 0 0 1-.834 3.381c-.56 1.916-1.12 5.507.392 6.628a1.794 1.794 0 0 0 1.518.169c4.95-1.037 9.553-5.726 12.577-12.269a38.908 38.908 0 0 0 2.498-7.671c.364-1.612.515-3.342.918-4.942a9.05 9.05 0 0 1 1.535-3.489c1.926-2.322 6.372-1.229 6.624 3.748.152 2.88-.61 5.698-.89 8.516-.174 1.758.907 1.747 1.714 1.691 3.864-.395 7.28-4.318 10.309-8.398 3.601-4.853 7.588-11.153 12.505-11.339 1.12-.04 2.985.107 3.657 1.848a5.844 5.844 0 0 1 0 3.269c-.997 4.159-3.92 6.307-6.16 8.364a104.994 104.994 0 0 0-16.537 20.03c-.711 1.127-1.445 2.987-.767 4.091a1.222 1.222 0 0 0 1.26.564c2.313-.18 4.48-2.029 6.591-3.562 2.111-1.533 4.508-2.874 6.72-1.719a6.04 6.04 0 0 1 1.748 1.6 6.084 6.084 0 0 1 1.002 2.154c.395 1.362.458 2.8.184 4.193-.812 3.827-4.323 5.546-6.255 7.434a64.989 64.989 0 0 0-7.28 8.391c-2.016 2.779-3.92 5.822-5.936 8.55-7.28 9.767-17.36 11.216-26.32 12.348-9.749 1.229-19.521.564-29.215-.727-7.05-.946-14-2.964-20.882-5.359-2.364-.863-4.71-1.804-7.028-2.92-2.492-1.195-6.16-1.933-7.118-6.639-.202-1.014.034-1.837.7-2.215 2.066-1.183 5.012.4 6.955 1.443 2.683 1.443 5.225 3.5 7.98 4.61a3.635 3.635 0 0 0 2.867.152 2.13 2.13 0 0 0 1.059-.975 2.607 2.607 0 0 0 .201-1.854 2.206 2.206 0 0 0-.56-.885 53.275 53.275 0 0 0-17.427-11.959c-2.1-.908-4.245-1.651-6.266-2.936a14.143 14.143 0 0 1-4.144-3.946c-.941-1.516-2.453-4.193-1.977-6.611ZM183.999 117.65a2.464 2.464 0 0 1-2.95.47 2.51 2.51 0 0 1-1.261-2.725c1.932-9.44 6.132-16.304 11.127-12.742 3.73 2.654-2.117 9.975-6.916 14.997Z" fill="#407BFF"/><path opacity=".3" d="M170.447 122.057a10.598 10.598 0 0 0 3.77-3.54 10.682 10.682 0 0 0 1.657-4.914l3.785-46.412a17.262 17.262 0 0 0-.885-7.048 17.187 17.187 0 0 0-3.645-6.083l-11.665-12.574a6.867 6.867 0 0 1-1.797-5.208l.56-6.797-30.19-2.496-.56 6.797a6.853 6.853 0 0 1-.8 2.698 6.81 6.81 0 0 1-1.815 2.143l-13.552 10.5a17.161 17.161 0 0 0-4.58 5.405 17.27 17.27 0 0 0-2.017 6.808l-3.791 46.411a10.685 10.685 0 0 0 .84 5.114 10.623 10.623 0 0 0 3.141 4.107 10.575 10.575 0 0 0-3.768 3.54 10.653 10.653 0 0 0-1.652 4.914l-4.833 59.177a10.695 10.695 0 0 0 2.478 7.755 10.556 10.556 0 0 0 7.199 3.725l49.84 4.12a10.505 10.505 0 0 0 4.099-.472 10.565 10.565 0 0 0 3.608-2.016 10.639 10.639 0 0 0 2.566-3.252c.635-1.243 1.02-2.6 1.134-3.993l4.833-59.177a10.707 10.707 0 0 0-.828-5.117 10.62 10.62 0 0 0-3.132-4.115Z" fill="#407BFF"/><path opacity=".3" d="m132.045 26.995-.428 5.24 30.183 2.498.428-5.24-30.183-2.498Z" fill="#407BFF"/><path opacity=".3" d="m174.849 55.271-11.665-12.585s-7.521.327-1.68 9.61c4.978 7.85 13.653 6.627 13.345 2.975Z" fill="#fff"/><path opacity=".2" d="M98.655 184.576a10.7 10.7 0 0 0 2.478 7.756 10.568 10.568 0 0 0 7.199 3.725l49.84 4.12a10.512 10.512 0 0 0 7.707-2.489 10.677 10.677 0 0 0 3.7-7.245l-70.924-5.867Z" fill="#407BFF"/><path opacity=".3" d="M172.67 56.36a13.807 13.807 0 0 1 2.926 4.885c.627 1.816.87 3.743.714 5.659l-3.785 46.417a7.31 7.31 0 0 1-1.135 3.349 7.24 7.24 0 0 1-2.572 2.411l-4.408 2.458 3.948 3.15a7.249 7.249 0 0 1 2.147 2.801 7.295 7.295 0 0 1 .575 3.489l-4.833 59.177a7.279 7.279 0 0 1-2.517 4.942 7.189 7.189 0 0 1-5.25 1.708l-49.84-4.12a7.178 7.178 0 0 1-2.715-.772 7.249 7.249 0 0 1-3.591-4.236 7.32 7.32 0 0 1-.33-2.82l4.833-59.177a7.282 7.282 0 0 1 1.131-3.351 7.245 7.245 0 0 1 2.57-2.415l4.408-2.457-3.92-3.15a7.249 7.249 0 0 1-2.147-2.801 7.295 7.295 0 0 1-.575-3.489l3.791-46.412c.157-1.916.71-3.778 1.624-5.466a13.79 13.79 0 0 1 3.679-4.34c4.48-2.914 16.24 4.34 30.011 5.478 13.77 1.138 22.383-2.378 25.261-.919Z" fill="#407BFF"/><path opacity=".2" d="M147.381 57.283c-13.765-1.127-25.536-8.397-30.016-5.483 7.84 4.34 16.8 7.028 29.797 8.104 12.998 1.077 25.508-3.545 25.508-3.545-2.878-1.46-11.524 2.069-25.289.924ZM104.927 107.747a10.697 10.697 0 0 0 .84 5.114 10.625 10.625 0 0 0 3.142 4.107l61.538 5.072a10.598 10.598 0 0 0 3.77-3.54 10.682 10.682 0 0 0 1.657-4.914l-70.947-5.839Z" fill="#407BFF"/><path d="m162.859 21.18-30.098-2.498a2.293 2.293 0 0 0-2.47 2.108l-.6 7.37a2.302 2.302 0 0 0 2.095 2.487l30.099 2.498a2.294 2.294 0 0 0 2.47-2.108l.6-7.37a2.302 2.302 0 0 0-2.096-2.487Z" fill="#407BFF"/><path opacity=".2" d="M133.314 29.51a.28.28 0 0 1-.258-.305l.706-8.916a.282.282 0 1 1 .56.045l-.728 8.91a.279.279 0 0 1-.28.265ZM138.774 29.96a.28.28 0 0 1-.258-.304l.728-8.91a.285.285 0 0 1 .302-.26.269.269 0 0 1 .19.1.274.274 0 0 1 .062.205l-.744 8.91a.285.285 0 0 1-.28.26ZM144.228 30.434a.28.28 0 0 1-.258-.304l.728-8.91a.297.297 0 0 1 .101-.19.269.269 0 0 1 .307-.04.284.284 0 0 1 .14.165.29.29 0 0 1 .012.11l-.728 8.91a.287.287 0 0 1-.193.247.279.279 0 0 1-.109.012ZM149.688 30.862a.28.28 0 0 1-.258-.304l.728-8.91a.286.286 0 0 1 .303-.26.279.279 0 0 1 .19.099.272.272 0 0 1 .051.096.27.27 0 0 1 .011.11l-.728 8.91a.279.279 0 0 1-.189.247.274.274 0 0 1-.108.012ZM155.12 31.313a.278.278 0 0 1-.245-.194.291.291 0 0 1-.013-.11l.728-8.91a.3.3 0 0 1 .303-.26.284.284 0 0 1 .245.195.29.29 0 0 1 .012.11l-.728 8.91a.268.268 0 0 1-.096.195.274.274 0 0 1-.206.064ZM160.602 31.764a.28.28 0 0 1-.257-.304l.705-8.916a.287.287 0 0 1 .303-.26.28.28 0 0 1 .252.305l-.723 8.916a.286.286 0 0 1-.28.259Z" fill="#fff"/><path opacity=".2" d="M114.24 92.243c-.851-4.74-7.711-4.402-8.103.395l-1.232 15.109a10.685 10.685 0 0 0 .84 5.114 10.623 10.623 0 0 0 3.141 4.107 10.575 10.575 0 0 0-3.768 3.54 10.653 10.653 0 0 0-1.652 4.914l-4.833 59.177a10.695 10.695 0 0 0 2.478 7.755 10.556 10.556 0 0 0 7.199 3.725l12.88 1.065a9.24 9.24 0 0 0 4.17-.622 9.29 9.29 0 0 0 3.467-2.413 9.396 9.396 0 0 0 2.263-7.943l-16.85-93.923Z" fill="#407BFF"/><path opacity=".3" d="M163.8 169.731a5.538 5.538 0 0 1-1.169 2.976 5.483 5.483 0 0 1-2.615 1.82 5.45 5.45 0 0 1-5.851-1.682 5.535 5.535 0 0 1-.695-6.084 5.492 5.492 0 0 1 2.21-2.299 5.456 5.456 0 0 1 3.108-.677 5.47 5.47 0 0 1 3.728 1.93 5.538 5.538 0 0 1 1.284 4.016ZM146.39 148.388a3.912 3.912 0 0 1-.827 2.106 3.876 3.876 0 0 1-1.85 1.29 3.848 3.848 0 0 1-2.249.037 3.88 3.88 0 0 1-1.892-1.227 3.921 3.921 0 0 1-.492-4.306 3.863 3.863 0 0 1 3.765-2.104 3.87 3.87 0 0 1 2.635 1.365 3.92 3.92 0 0 1 .91 2.839ZM130.189 100.883a3.854 3.854 0 0 1-2.18-.555 3.895 3.895 0 0 1-1.507-1.68 3.916 3.916 0 0 1 .639-4.284 3.852 3.852 0 0 1 4.176-1.048c.721.26 1.35.73 1.806 1.35a3.912 3.912 0 0 1 .533 3.638 3.901 3.901 0 0 1-1.998 2.212c-.461.218-.96.343-1.469.367ZM140.756 77.567a2.731 2.731 0 0 1-1.547-.389 2.76 2.76 0 0 1-1.304-2.776 2.763 2.763 0 0 1 2.051-2.273 2.727 2.727 0 0 1 1.592.082c.512.185.956.518 1.279.958a2.776 2.776 0 0 1-.177 3.497 2.736 2.736 0 0 1-1.894.901ZM157.758 131.531a1.609 1.609 0 0 1-1.108 1.4 1.59 1.59 0 0 1-1.71-.493 1.61 1.61 0 0 1-.369-.858 1.611 1.611 0 0 1 .811-1.592 1.591 1.591 0 0 1 1.999.367c.275.327.411.749.377 1.176Z" fill="#407BFF"/><path opacity=".7" d="M128.75 175.626h-.269a3.23 3.23 0 0 1-2.996-3.505 3.28 3.28 0 0 1 .672-1.734 3.224 3.224 0 0 1 4.943-.207c.427.466.71 1.046.814 1.671a3.289 3.289 0 0 1-.227 1.848 3.262 3.262 0 0 1-1.194 1.422 3.227 3.227 0 0 1-1.771.534l.028-.029Zm0-6.109a2.792 2.792 0 0 0-1.749.628 2.827 2.827 0 0 0 .587 4.748 2.787 2.787 0 0 0 3.401-.848 2.827 2.827 0 0 0-.945-4.214 2.792 2.792 0 0 0-1.059-.303l-.235-.011ZM163.386 109.675h-.196a2.357 2.357 0 0 1-1.603-.828 2.382 2.382 0 0 1 .271-3.34 2.35 2.35 0 0 1 1.718-.555c.622.052 1.198.35 1.602.828a2.382 2.382 0 0 1-.269 3.343c-.427.36-.967.556-1.523.552Zm-1.932-2.531a1.954 1.954 0 0 0 1.055 1.881 1.924 1.924 0 0 0 2.131-.252 1.952 1.952 0 0 0 .592-2.085 1.947 1.947 0 0 0-.368-.665 1.906 1.906 0 0 0-1.344-.631 1.912 1.912 0 0 0-1.412.454 1.93 1.93 0 0 0-.677 1.327l.023-.029ZM127.204 59.707h-.084a1.117 1.117 0 0 1-.744-.392 1.131 1.131 0 0 1 .475-1.79 1.116 1.116 0 0 1 1.195.289 1.128 1.128 0 0 1 .212 1.218 1.115 1.115 0 0 1-1.026.68l-.028-.005Zm-.678-1.161a.68.68 0 0 0 .753.731.677.677 0 0 0 .574-.49.683.683 0 0 0-.858-.839.68.68 0 0 0-.469.598ZM151.967 88.895h-.235a2.783 2.783 0 0 1-1.918-.988 2.82 2.82 0 0 1-.652-2.066 2.816 2.816 0 0 1 1.888-2.42 2.781 2.781 0 0 1 2.962.76 2.833 2.833 0 0 1 .505 3.035 2.79 2.79 0 0 1-2.555 1.69l.005-.01Zm0-5.241a2.362 2.362 0 0 0-1.54.564c-.483.411-.785.999-.84 1.634a2.422 2.422 0 0 0 .898 2.079 2.38 2.38 0 0 0 3.202-.21 2.421 2.421 0 0 0 .622-2.178 2.405 2.405 0 0 0-1.242-1.634 2.354 2.354 0 0 0-.898-.255h-.202Z" fill="#fff"/><path opacity=".3" d="m174.938 113.536 3.618-44.26a2.179 2.179 0 0 0-.503-1.573 2.152 2.152 0 0 0-1.463-.754 2.124 2.124 0 0 0-1.563.503 2.145 2.145 0 0 0-.749 1.47l-3.618 44.259a8.956 8.956 0 0 1-1.393 4.129 8.892 8.892 0 0 1-3.171 2.972l-2.201 1.234 1.977 1.572a8.946 8.946 0 0 1 2.648 3.453 9.003 9.003 0 0 1 .712 4.303l-4.833 59.177c-.291 3.55-2.509 5.281-5.628 6.661a.982.982 0 0 0-.463.435c-.102.192-.138.413-.102.628a.98.98 0 0 0 .879.82 8.858 8.858 0 0 0 6.48-2.097 8.97 8.97 0 0 0 3.113-6.092l4.832-59.177a8.99 8.99 0 0 0-.71-4.303 8.926 8.926 0 0 0-2.65-3.452l-1.976-1.579 2.2-1.228a8.918 8.918 0 0 0 3.17-2.973 8.98 8.98 0 0 0 1.394-4.128Z" fill="#fff"/><path opacity=".3" d="M233.066 182.316c-.604-2.761-8.153-1.127-9.716-.873a45.397 45.397 0 0 0-8.87 2.575c-3.153 1.246-6.815 3.078-10.08 1.184-1.887-1.093 4.665-3.252 5.258-3.472a47.76 47.76 0 0 0 8.031-3.708c1.036-.62 3.041-2.102 2.178-3.607-.717-1.246-3.287-1.127-4.849-.936a57.46 57.46 0 0 0-13.827 3.489 136.204 136.204 0 0 0-12.689 5.844 16.306 16.306 0 0 1-5.147 1.866c-1.971.282-4.385-.141-5.163-1.24-.778-1.099.224-2.384.454-3.489a5.968 5.968 0 0 0-.387-3.945 4.151 4.151 0 0 0-1.82-1.927c-2.133-1.128-5.359-.71-7.504.18a12.301 12.301 0 0 0-3.746 2.491 15.235 15.235 0 0 0-4.413 7.637 7.123 7.123 0 0 1-2.968 4.548c-3.002 2.034-8.501 1.916-12.706.896-7.342-1.753-12.942-5.85-14.292-10.477-.655-2.204-.974-4.509-3.92-5.371-1.904-.564-5.891-.169-5.04 2.254.309.664.713 1.28 1.199 1.826.778 1.032 1.607 2.976-.706 3.602a7.121 7.121 0 0 1-2.279.112c-7.437-.501-14.28-2.998-18.715-6.515a15.126 15.126 0 0 1-3.618-4.131c-.526-.874-.717-1.815-1.293-2.677a5.149 5.149 0 0 0-2.24-1.877c-2.856-1.234-9.565-.592-10.036 2.114-.252 1.465.656 3.054 1.12 4.446a.84.84 0 0 1 .056.564c-.134.355-.666.457-1.12.485-5.997.4-11.816-1.945-16.85-4.391-5.331-2.592-11.2-5.968-18.609-6.008a14.277 14.277 0 0 0-4.541.525c-.374.1-.722.281-1.02.529a1.319 1.319 0 0 0-.246 1.454c.24.497.598.926 1.042 1.252 2.24 1.837 5.376 2.581 8.237 3.528 8.49 2.769 16.7 6.345 24.517 10.68.79.445 2.19 1.476 1.08 2.254-1.108.778-3.36.276-4.686.056-2.408-.394-4.721-1.025-7.068-1.617-3.102-.789-6.72-1.505-10.08-.851-1.775.344-3.36 1.076-4.194 2.068a1.96 1.96 0 0 0-.358 2.255c1.153 2.068 6.412 2.959 9.284 3.945a93.275 93.275 0 0 1 10.77 4.469c2.984 1.488 5.756 3.117 8.78 4.576 10.802 5.214 25.889 5.884 39.379 6.392 14.644.563 29.355.084 43.96-.733 10.64-.597 21.084-1.775 31.511-3.162 2.996-.394 5.976-.879 8.96-1.29 3.03-.35 6.027-.947 8.96-1.787a7.563 7.563 0 0 0 2.884-1.454c.801-.75 1.053-1.73-.38-2.012-3.002-.603-6.093.084-9.028.62a173.775 173.775 0 0 0-9.788 2.102c-1.474.396-2.97.702-4.48.919a11.196 11.196 0 0 1-4.542-.293c-.482-.153-1.008-.423-1.036-.851-.028-.429.375-.699.79-.863 6.042-2.412 12.46-3.945 18.922-5.354 4.385-.958 8.848-1.544 13.266-2.294 4.027-.682 8.272-.839 11.76-3.409a4.048 4.048 0 0 0 1.546-1.877c.151-.397.188-.829.106-1.246ZM59.78 159.497c-1.64-4.695-7.487-13.008-8.72-8.099-.66 2.756 8.72 8.099 8.72 8.099ZM206.601 168.739c3.125-2.868 7.022-4.576 7.526-2.051.471 2.389-7.526 2.051-7.526 2.051ZM78.4 145.925c-2.14-1.127-3.808-2.936-2.554-3.691 1.255-.755 2.554 3.691 2.554 3.691Z" fill="#407BFF"/></g><defs><clipPath id="a"><path fill="#fff" d="M0 0h280v210H0z"/></clipPath></defs></svg>